<mxfile host="app.diagrams.net" modified="2024-05-16T08:42:58.447Z" agent="Mozilla/5.0 (X11; Linux x86_64) AppleWebKit/537.36 (KHTML, like Gecko) Chrome/124.0.0.0 Safari/537.36" etag="8OMsOo8vTDVlSNgEmZGk" version="24.4.0" type="github">
  <diagram name="Page-1" id="z5t0ueBNbgcPkJoonDdI">
    <mxGraphModel dx="1186" dy="1097" grid="1" gridSize="10" guides="1" tooltips="1" connect="1" arrows="1" fold="1" page="1" pageScale="1" pageWidth="827" pageHeight="1169" math="0" shadow="0">
      <root>
        <mxCell id="0" />
        <mxCell id="1" parent="0" />
      </root>
    </mxGraphModel>
  </diagram>
</mxfile>
